<?xml version="1.0" encoding="UTF-8" standalone="no"?>
<!-- Created with Inkscape (http://www.inkscape.org/) -->

<svg
   width="722.58569mm"
   height="695.9104mm"
   viewBox="0 0 722.58569 695.9104"
   version="1.1"
   id="svg1"
   xml:space="preserve"
   xmlns="http://www.w3.org/2000/svg"
   xmlns:svg="http://www.w3.org/2000/svg"><defs
     id="defs1" /><g
     id="layer1"
     transform="translate(267.95166,232.88666)"><path
       style="fill:#000000"
       d="m 266.67117,462.91191 c -6.57957,-0.7589 -8.40326,-1.01335 -11.46528,-1.5997 -9.43054,-1.80587 -16.68367,-4.41633 -45.68472,-16.44232 -55.36438,-22.95818 -76.67533,-27.74551 -107.24445,-24.09155 -1.64923,0.19713 -5.538609,0.60324 -8.643053,0.90245 -15.831962,1.52591 -33.687531,6.12816 -56.091667,14.45756 -1.74625,0.64922 -8.5725,3.19443 -15.169445,5.65603 -44.059986,16.44065 -63.463796,20.80997 -86.835976,19.55357 -44.373219,-2.38534 -77.070409,-47.50565 -65.695879,-90.65667 1.40385,-5.3257 1.87975,-7.25923 2.77856,-11.28889 11.40122,-51.11516 37.198259,-103.14283 76.521659,-154.3294 12.66013,-16.47948 28.593938,-31.09626 47.3024685,-43.39263 C 55.550868,122.83137 125.2413,117.8249 177.5078,148.67294 c 36.85371,21.7513 68.4591,53.38094 104.06782,104.14763 3.62865,5.17329 19.15102,28.50938 22.67285,34.08599 1.71549,2.71639 5.09569,8.03451 7.51155,11.81805 10.4149,16.31107 25.10496,49.26687 29.87767,67.02778 3.31478,12.33549 4.21513,18.9383 4.20913,30.86806 -0.0108,21.38158 -4.37768,33.32034 -16.72071,45.71292 -10.98823,11.03235 -23.52745,17.04695 -41.52708,19.91902 -3.30536,0.52741 -18.04582,0.99194 -20.92786,0.65952 z M -151.12532,227.09224 c -12.30043,-1.27704 -30.2014,-7.86478 -43.90442,-16.15726 -38.43997,-23.26226 -66.81212,-68.94417 -71.67913,-115.410369 -0.2134,-2.03729 -0.55968,-5.13291 -0.76952,-6.87916 -1.68583,-14.0289 1.28901,-38.87684 6.43336,-53.73591 11.24378,-32.4768467 47.86604,-51.122309 82.15786,-41.8289707 8.24776,2.235203 19.72737,7.88844895 30.41559,14.978445 54.128709,35.9061257 82.148199,108.3030447 65.117769,168.2517147 -8.98106,31.61415 -38.602769,53.80983 -67.771509,50.78151 z m 481.82566,-11.14288 c -37.96249,-4.2878 -65.20951,-41.24245 -65.25069,-88.49836 -0.0109,-12.54296 1.76831,-26.16691 5.32125,-40.745829 14.75647,-60.55075 58.98816,-104.704929 110.64124,-110.447354 23.55899,-2.619123 51.12006,15.9699703 63.32983,42.714024 0.57578,1.26118 1.40828,3.0868 1.85001,4.05694 2.53618,5.57011 5.79904,16.88067 6.8694,23.8125 0.31459,2.03729 0.73838,4.73604 0.94176,5.99722 0.45033,2.7925 0.19717,22.21117 -0.37252,28.575 -5.20125,58.100729 -42.06418,111.924229 -88.09837,128.632259 -11.55,4.19205 -27.18705,6.81226 -35.23191,5.9036 z M -17.844112,32.897961 c -3.966505,-0.51543 -8.541179,-1.8837 -14.890366,-4.45365 -27.927173,-11.30402 -51.400513,-33.4191697 -67.110103,-63.227046 -24.451479,-46.394996 -28.168879,-109.339225 -8.724189,-147.720475 17.794319,-35.12361 49.176029,-53.1904 79.870188,-45.98214 30.2376745,7.10106 56.565861,28.73914 75.312176,61.89608 8.403625,14.86363 16.317613,37.04336 19.529766,54.73407 1.076789,5.93035 1.233991,6.9198 1.89715,11.940925 1.652966,12.515495 2.199842,32.254263 1.138663,41.098612 C 66.025805,-32.534046 58.334505,-12.155694 45.212687,4.6843373 29.384764,24.997271 5.0715945,35.875761 -17.844112,32.897961 Z M 190.38161,32.710251 C 169.25203,30.833321 146.4656,15.785633 132.45055,-5.5462187 117.52673,-28.261295 109.55639,-60.555217 111.80638,-89.191517 c 2.4764,-31.518013 8.12834,-53.453623 19.77635,-76.753483 17.25637,-34.51846 44.2255,-57.96328 75.11622,-65.30009 7.2539,-1.72287 7.38305,-1.73786 13.58194,-1.57721 40.68445,1.05443 74.91482,38.19711 80.63003,87.49002 1.84967,15.95319 1.88348,16.45995 1.90021,28.48467 0.0958,68.873279 -35.81852,127.746772 -89.60506,146.887371 -3.53295,1.25724 -8.74678,2.29675 -13.49213,2.68998 -4.54754,0.37685 -4.87831,0.37616 -9.33233,-0.0195 z"
       id="path1" /></g></svg>
